<svg xmlns="http://www.w3.org/2000/svg" viewBox="0 0 300 100">
  <rect width="300" height="100" fill="#000000" rx="10"/>
  <path d="M50 30c-3 0-5.5 2.5-5.5 5.5s2.5 5.5 5.5 5.5c1.5 0 2.8-0.6 3.8-1.6l0.7 0.7c0.3 0.3 0.7 0.4 1.1 0.4s0.8-0.1 1.1-0.4c0.6-0.6 0.6-1.6 0-2.2l-0.7-0.7c1-1 1.6-2.3 1.6-3.8 0-3-2.5-5.5-5.5-5.5z" fill="#FFFFFF"/>
  <text x="80" y="45" font-family="Arial, sans-serif" font-size="18" font-weight="bold" fill="#FFFFFF">Apple TV</text>
  <circle cx="220" cy="40" r="3" fill="#FFFFFF"/>
  <text x="235" y="50" font-family="Arial, sans-serif" font-size="24" font-weight="bold" fill="#FFFFFF">+</text>
</svg>