<svg xmlns="http://www.w3.org/2000/svg" viewBox="0 0 496 496">
  <circle cx="248" cy="248" r="248" fill="#1DB954"/>
  <path d="M248 80c92.8 0 168 75.2 168 168s-75.2 168-168 168S80 340.8 80 248 155.2 80 248 80zm77.6 242.4c-3.2 5.2-10 6.8-15.2 3.6-41.6-25.2-94-30.8-155.6-16.8-6 1.2-12-2.8-13.2-8.8s2.8-12 8.8-13.2c67.2-15.2 125.6-8.8 172 19.6 5.2 3.2 6.8 10 3.6 15.2zm21.6-48c-4 6.4-12.4 8.4-18.8 4.4-47.6-29.2-120-37.6-176.4-20.8-7.2 2-14.8-2.4-16.8-9.6s2.4-14.8 9.6-16.8c64.8-19.2 146.8-10 202.8 24 6.4 4 8.4 12.4 4.4 18.8zm1.6-50c-57.2-34-151.6-37.2-206.4-20.8-8.8 2.4-18-2.8-20.4-11.6s2.8-18 11.6-20.4c62.8-18.8 168.4-15.2 234.4 24 7.6 4.4 10 14 5.6 21.6s-14 10-21.6 5.6z" fill="#FFF"/>
</svg>